<?xml version="1.0" encoding="utf-8"?>
<!-- Generator: Adobe Illustrator 24.1.1, SVG Export Plug-In . SVG Version: 6.00 Build 0)  -->
<svg version="1.1" id="Layer_1" xmlns="http://www.w3.org/2000/svg" xmlns:xlink="http://www.w3.org/1999/xlink" x="0px" y="0px"
	 viewBox="0 0 200 200" style="enable-background:new 0 0 200 200;" xml:space="preserve">
<style type="text/css">
	.st0{fill:url(#SVGID_1_);}
	.st1{fill:url(#SVGID_2_);}
</style>
<g>
	<linearGradient id="SVGID_1_" gradientUnits="userSpaceOnUse" x1="34.8658" y1="62.1766" x2="162.8658" y2="148.1766">
		<stop  offset="0" style="stop-color:#633B96"/>
		<stop  offset="0.4698" style="stop-color:#316CB4"/>
		<stop  offset="1" style="stop-color:#00A895"/>
	</linearGradient>
	<path class="st0" d="M46.9,69.2v71.4H150V69.2H46.9z M72.7,88.4c4.4,0,7.9,3.6,7.9,7.9s-3.6,7.9-7.9,7.9s-7.9-3.6-7.9-7.9
		S68.3,88.4,72.7,88.4z M92.5,120.4H52.8v-6.2c0-2.6,2.1-4.7,4.7-4.7c0,0,0,0,0,0h30.1c2.6-0.1,4.8,2,4.8,4.6c0,0,0,0.1,0,0.1V120.4
		z M142.1,130.2h-39.7v-11h39.7V130.2z M142.1,110.4h-39.7V99.5h39.7V110.4z M142.1,90.6h-39.7V79.7h39.7V90.6z"/>
	<linearGradient id="SVGID_2_" gradientUnits="userSpaceOnUse" x1="54.8513" y1="32.4307" x2="182.8513" y2="118.4307">
		<stop  offset="0" style="stop-color:#633B96"/>
		<stop  offset="0.4698" style="stop-color:#316CB4"/>
		<stop  offset="1" style="stop-color:#00A895"/>
	</linearGradient>
	<path class="st1" d="M109.4,58.2h-5.5v-0.3c0-3-2.5-5.5-5.5-5.5s-5.5,2.5-5.5,5.5v0.3h-5.5v7h22V58.2z"/>
</g>
</svg>
