<?xml version="1.0" encoding="utf-8"?>
<!-- Generator: Adobe Illustrator 24.1.1, SVG Export Plug-In . SVG Version: 6.00 Build 0)  -->
<svg version="1.1" id="Layer_1" xmlns="http://www.w3.org/2000/svg" xmlns:xlink="http://www.w3.org/1999/xlink" x="0px" y="0px"
	 viewBox="0 0 200 200" style="enable-background:new 0 0 200 200;" xml:space="preserve">
<style type="text/css">
	.st0{fill-rule:evenodd;clip-rule:evenodd;fill:url(#SVGID_1_);}
	.st1{fill-rule:evenodd;clip-rule:evenodd;fill:url(#SVGID_2_);}
	.st2{fill:#FFFFFF;}
</style>
<g transform="translate(0,-1020.3622)">
	<linearGradient id="SVGID_1_" gradientUnits="userSpaceOnUse" x1="59.5226" y1="1074.7314" x2="141.6917" y2="1176.5747">
		<stop  offset="0" style="stop-color:#633B96"/>
		<stop  offset="0.4698" style="stop-color:#316CB4"/>
		<stop  offset="1" style="stop-color:#00A895"/>
	</linearGradient>
	<path class="st0" d="M60.8,1078.1v90.4h75.9v-90.4H120v7.7H77.5v-7.7H60.8z"/>
	<linearGradient id="SVGID_2_" gradientUnits="userSpaceOnUse" x1="81.6154" y1="1056.9065" x2="163.7845" y2="1158.7499">
		<stop  offset="0" style="stop-color:#633B96"/>
		<stop  offset="0.4698" style="stop-color:#316CB4"/>
		<stop  offset="1" style="stop-color:#00A895"/>
	</linearGradient>
	<path class="st1" d="M98.8,1065.1c-4.8,0-8.7,3.8-9,8.5h-9.1v9h36.2v-9h-9.1C107.5,1068.9,103.5,1065.1,98.8,1065.1L98.8,1065.1z
		 M98.8,1068.7c2.8,0,5.1,2.1,5.4,4.9H93.4C93.6,1070.9,95.9,1068.7,98.8,1068.7L98.8,1068.7z"/>
</g>
<path class="st2" d="M98.1,120.1l-15.8-13.5l3.6-4.2l11.1,9.5l17-25l4.6,3.1L98.1,120.1z"/>
</svg>
