<?xml version="1.0" encoding="utf-8"?>
<!-- Generator: Adobe Illustrator 24.1.1, SVG Export Plug-In . SVG Version: 6.00 Build 0)  -->
<svg version="1.1" id="Layer_1" xmlns="http://www.w3.org/2000/svg" xmlns:xlink="http://www.w3.org/1999/xlink" x="0px" y="0px"
	 viewBox="0 0 200 200" style="enable-background:new 0 0 200 200;" xml:space="preserve">
<style type="text/css">
	.st0{fill:url(#SVGID_1_);}
	.st1{fill:url(#SVGID_2_);}
</style>
<linearGradient id="SVGID_1_" gradientUnits="userSpaceOnUse" x1="42.3637" y1="54.2949" x2="145.0186" y2="152.525">
	<stop  offset="0" style="stop-color:#633B96"/>
	<stop  offset="0.4698" style="stop-color:#316CB4"/>
	<stop  offset="1" style="stop-color:#00A895"/>
</linearGradient>
<path class="st0" d="M119.7,97.5c-17,0-30.8,13.8-30.8,30.8c0,17,13.8,30.8,30.8,30.8s30.8-13.8,30.8-30.8
	C150.5,111.3,136.7,97.5,119.7,97.5z M118.6,143.1l-12.9-11l2.9-3.4l9.1,7.8l13.9-20.4l3.7,2.5L118.6,143.1z"/>
<linearGradient id="SVGID_2_" gradientUnits="userSpaceOnUse" x1="45.3029" y1="51.2234" x2="147.9577" y2="149.4534">
	<stop  offset="0" style="stop-color:#633B96"/>
	<stop  offset="0.4698" style="stop-color:#316CB4"/>
	<stop  offset="1" style="stop-color:#00A895"/>
</linearGradient>
<path class="st1" d="M103.3,97.6c-1.2-1.5-1.7-3.3-1.3-5.2c2-1.4,3.5-3.1,4.3-5.3c5.9,1.7,10.7,0.9,14.5-2.5
	c-2.8-2.8-4.3-6.2-4.6-10.3c-0.2-6.4-0.8-12.1-1.8-17c-0.9-5-2.7-9-5.3-12.2c-2.4-2.9-5.6-4.8-9.6-5.6c-0.2,0-0.5-0.1-0.7-0.1
	c0,0-0.1,0-0.1,0c-5.6-0.5-9.6,0.5-12,3c-1.4-0.6-2.8-1-4.1-1.2c-0.2,0-0.5-0.1-0.8-0.1c-2.9-0.3-5.8,0.5-8.4,2.4
	c-2.8,2.6-4.8,5.8-5.8,9.4c-1,3.7-1.8,8.4-2.4,14l-0.6,10.7c-0.5,2.8-2.1,5.2-4.7,7.2c4.2,3.1,9,3.6,14.3,1.2
	c1.1,2.8,2.8,4.9,5.1,6.2c0.4,2.7-0.5,4.8-2.4,6.3c-2,1.5-8.7,4.6-20.1,9.1c-4,2-6.4,4.3-7.2,6.9c-0.9,2.6-1.2,5-1,7.3h36.9
	C87.5,111.3,94.2,102.5,103.3,97.6z"/>
</svg>
