<?xml version="1.0" encoding="utf-8"?>
<!-- Generator: Adobe Illustrator 24.1.1, SVG Export Plug-In . SVG Version: 6.00 Build 0)  -->
<svg version="1.1" id="Layer_1" xmlns="http://www.w3.org/2000/svg" xmlns:xlink="http://www.w3.org/1999/xlink" x="0px" y="0px"
	 viewBox="0 0 200 200" style="enable-background:new 0 0 200 200;" xml:space="preserve">
<style type="text/css">
	.st0{fill:url(#SVGID_1_);}
</style>
<linearGradient id="SVGID_1_" gradientUnits="userSpaceOnUse" x1="53.3959" y1="103.0932" x2="147.1142" y2="103.0932" gradientTransform="matrix(1 0 0 -1 0 202)">
	<stop  offset="0" style="stop-color:#633B96"/>
	<stop  offset="0.4698" style="stop-color:#316CB4"/>
	<stop  offset="1" style="stop-color:#00A895"/>
</linearGradient>
<path class="st0" d="M62.9,92.5l11.6,4.8c-1.3,3.3-2.4,6.7-3.1,10.2l-0.4,2l16.6,16.6l2-0.4c3.5-0.8,6.9-1.8,10.2-3.1l4.8,11.6
	c0.2,0.4,0.6,0.6,1,0.4c0.1,0,0.2-0.1,0.3-0.2l7.3-7.3c2.4-2.4,3.7-5.7,3.5-9.1l-0.3-4.7c13.5-9.9,27.1-27.4,30.8-57.8
	c0.4-2.7-1.5-5.3-4.3-5.6c-0.4-0.1-0.9-0.1-1.3,0c-30.4,3.7-47.9,17.4-57.8,30.8L79,80.5c-3.4-0.2-6.7,1.1-9.1,3.4l-7.3,7.3
	c-0.3,0.3-0.4,0.7-0.1,1.1C62.7,92.4,62.8,92.5,62.9,92.5z M109.5,74.8c3.5-3.5,9.2-3.5,12.7,0s3.5,9.2,0,12.7s-9.2,3.5-12.7,0
	S106,78.3,109.5,74.8L109.5,74.8z M60.7,127.5c-1.9-0.7-4-0.8-6-0.5c-0.4,0.1-0.7,0-1-0.3s-0.4-0.8-0.2-1.2c2.1-4.6,7.8-13.8,18-6.3
	c0.2,0.2,0.2,0.5,0,0.7l0,0c-2.8,2.2-4.3,5.6-4.2,9.1c0,0.4,0.4,0.8,0.8,0.8c3.5,0.1,6.9-1.4,9.1-4.1c0.2-0.2,0.5-0.3,0.7-0.1
	c0,0,0.1,0,0.1,0.1c1.4,1.7,5.3,7.2,1,12.5c-1.9,2.3-4.6,3.7-7.5,4c-4.2,0.4-12,1.8-15.1,5.4c-0.4,0.5-1.1,0.5-1.5,0.1
	c-0.2-0.1-0.3-0.3-0.3-0.5C53.3,143.4,51.5,134.8,60.7,127.5z"/>
</svg>
