<?xml version="1.0" encoding="utf-8"?>
<!-- Generator: Adobe Illustrator 24.1.1, SVG Export Plug-In . SVG Version: 6.00 Build 0)  -->
<svg version="1.1" id="Layer_1" xmlns="http://www.w3.org/2000/svg" xmlns:xlink="http://www.w3.org/1999/xlink" x="0px" y="0px"
	 viewBox="0 0 200 200" style="enable-background:new 0 0 200 200;" xml:space="preserve">
<style type="text/css">
	.st0{fill:url(#SVGID_1_);}
</style>
<linearGradient id="SVGID_1_" gradientUnits="userSpaceOnUse" x1="73.5942" y1="48.4608" x2="135.5942" y2="146.4608">
	<stop  offset="0" style="stop-color:#633B96"/>
	<stop  offset="0.4698" style="stop-color:#316CB4"/>
	<stop  offset="1" style="stop-color:#00A895"/>
</linearGradient>
<path class="st0" d="M129.6,72.1c-17.8-3.3-29.1-16.5-29.1-16.5l0,0c0,0-0.5,0.6-1.5,1.6c-0.3,0.3-0.8,0.7-1.2,1.2
	c-0.5,0.4-0.9,0.7-1.4,1.2c-1.4,1.2-3.2,2.7-5.4,4.1c-2.8,1.9-6.1,3.8-9.9,5.4c-0.6,0.3-1.3,0.5-2,0.8c-4.7,1.7-10,2.9-15.9,2.9
	c0,72.6,37.2,72.6,37.2,72.6l0,0c0,0,3.6,0,8.6-2.2c0.5-0.2,1-0.5,1.5-0.7c2.9-1.5,6.1-3.7,9.3-7c0.3-0.3,0.6-0.6,0.9-0.9
	c0.6-0.6,1.2-1.3,1.7-2c1.4-1.8,2.8-3.8,4.2-6.2c1.1-1.9,2.1-3.9,3.1-6.1c4.7-10.7,8-25.9,8-47.4C134.9,72.9,132.3,72.6,129.6,72.1z
	 M100.5,130.7c0,0-25,0-25-48.8c15,0,25-11.6,25-11.6V130.7z"/>
</svg>
