<?xml version="1.0" encoding="utf-8"?>
<!-- Generator: Adobe Illustrator 24.1.1, SVG Export Plug-In . SVG Version: 6.00 Build 0)  -->
<svg version="1.1" id="Layer_1" xmlns="http://www.w3.org/2000/svg" xmlns:xlink="http://www.w3.org/1999/xlink" x="0px" y="0px"
	 viewBox="0 0 200 200" style="enable-background:new 0 0 200 200;" xml:space="preserve">
<style type="text/css">
	.st0{fill:url(#SVGID_1_);}
</style>
<linearGradient id="SVGID_1_" gradientUnits="userSpaceOnUse" x1="46.1939" y1="39.2734" x2="159.1939" y2="171.2734">
	<stop  offset="0" style="stop-color:#633B96"/>
	<stop  offset="0.4698" style="stop-color:#316CB4"/>
	<stop  offset="1" style="stop-color:#00A895"/>
</linearGradient>
<path class="st0" d="M140.7,119c6.4-8.6,14.4-19.3,10-40.2c-2.3-11.1-8.5-19.5-18.4-25.1c-9.9-5.5-20.9-6.7-28.3-6.7
	c-5.5,0-10.9,0.6-15.6,1.9c-11.1,2.9-21.2,10.7-26.9,20.9c-4.5,7.9-5.7,16.3-3.5,23.7c0.2,0.6,0.1,1.2-0.3,1.7
	C57,96.1,56,97.4,55,98.9c-2.9,4-6.4,9-7.7,12.6c-0.5,1.4-0.4,3,0.3,4.4c0.7,1.4,2,2.4,3.4,2.7c0.3,0.1,1.7,0.6,2.5,0.9
	c0.8,0.3,1.5,0.6,1.6,0.6c1.9,0.6,1.8,8.7,1.8,13.6c0,1.2,0,2.5,0,3.7c0,6.4,4.1,10.2,11.1,10.2c2,0,3.7-0.3,4.8-0.5
	c0.9-0.2,1.9-0.3,2.7-0.3c3.3,0,4.7,1.5,4.7,5.2c0,1.1,0,2.1,0.1,3c0.2,2.7,1.9,5,4.5,6c2,0.8,9.4,3.3,21,3.3h0
	c9.4,0,18.9-1.7,28.1-5c1.3-0.5,2.3-1.5,2.8-2.7c0.5-1.3,0.5-2.7-0.2-4c-1.6-3.3-5.5-10.9-2.8-21.2
	C134.7,126.9,137.5,123.3,140.7,119z M97.1,108.1L81.4,94.6l3.6-4.2l11.1,9.5l17-25l4.6,3.1L97.1,108.1z"/>
</svg>
