<?xml version="1.0" encoding="utf-8"?>
<!-- Generator: Adobe Illustrator 24.3.0, SVG Export Plug-In . SVG Version: 6.00 Build 0)  -->
<svg version="1.1" id="Layer_1" xmlns="http://www.w3.org/2000/svg" xmlns:xlink="http://www.w3.org/1999/xlink" x="0px" y="0px"
	 viewBox="0 0 150 150" style="enable-background:new 0 0 150 150;" xml:space="preserve">
<style type="text/css">
	.st0{fill:url(#SVGID_1_);}
	.st1{fill-rule:evenodd;clip-rule:evenodd;fill:url(#SVGID_2_);}
</style>
<linearGradient id="SVGID_1_" gradientUnits="userSpaceOnUse" x1="3.1373" y1="31.2534" x2="156.7427" y2="124.5982">
	<stop  offset="0" style="stop-color:#633C97"/>
	<stop  offset="0.4698" style="stop-color:#326DB5"/>
	<stop  offset="1" style="stop-color:#00A997"/>
</linearGradient>
<path class="st0" d="M82.5,38.5l-6.2,14.9H26.7v59.6h99.3V53.4V38.5H82.5z M76.3,63.3c0.9,0,1.8,0.1,2.8,0.2
	c-0.5,1.9,0.5,3.8,2.3,4.4c1.8,0.7,3.8-0.2,4.6-1.9c1.6,1,3,2.2,4.2,3.6c-1.5,1.1-2,3.2-1,4.9c1,1.7,3,2.3,4.7,1.6
	c0.6,1.8,0.9,3.6,1,5.5c-1.9-0.1-3.6,1.2-3.9,3.1c-0.3,1.9,0.8,3.7,2.7,4.3c-0.7,1.7-1.6,3.4-2.8,4.8c-1.4-1.3-3.5-1.4-5-0.2
	c-1.5,1.2-1.8,3.4-0.7,5c-1.6,0.9-3.4,1.5-5.2,1.9c0,0,0,0,0-0.1c-0.1-0.6-0.3-1.1-0.6-1.6c-0.1-0.1-0.1-0.2-0.2-0.3
	c-0.5-0.6-1.1-1-1.8-1.3c-0.4-0.1-0.7-0.2-1.1-0.2c-0.5,0-0.9,0.1-1.3,0.3c-0.1,0-0.2,0.1-0.3,0.1c0,0,0,0,0,0c0,0,0,0,0,0
	c-0.1,0.1-0.2,0.1-0.3,0.2c0,0,0,0,0,0c-0.1,0.1-0.2,0.1-0.3,0.2c-0.1,0.1-0.2,0.1-0.2,0.2c-0.1,0.1-0.2,0.2-0.3,0.3
	c0,0,0,0.1-0.1,0.1c-0.1,0.1-0.1,0.1-0.2,0.2c0,0,0,0,0,0c-0.1,0.2-0.3,0.4-0.4,0.7c0,0,0,0.1,0,0.1c0,0.1-0.1,0.2-0.1,0.3
	c0,0.1-0.1,0.2-0.1,0.4c0,0.1,0,0.2-0.1,0.4c-1.9-0.4-3.7-1.1-5.4-2c1.3-1.6,1.1-3.9-0.5-5.2c-1.5-1.3-3.8-1.1-5.1,0.3
	c-1.1-1.4-2-3-2.6-4.7c1.8-0.5,3-2.4,2.7-4.3c-0.3-1.9-2-3.2-3.9-3.1c0.1-1.9,0.4-3.7,1-5.5c1.7,0.8,3.8,0.1,4.7-1.6
	c1-1.7,0.5-3.8-1-4.9c1.2-1.4,2.7-2.6,4.2-3.6c0.8,1.7,2.8,2.5,4.6,1.9c1.8-0.7,2.8-2.6,2.3-4.4C74.5,63.4,75.4,63.3,76.3,63.3z
	 M76.3,75.8c-3.4,0-6.2,2.8-6.2,6.3c0,3.5,2.8,6.3,6.2,6.3c3.4,0,6.2-2.8,6.2-6.3C82.5,78.6,79.7,75.8,76.3,75.8z M57.7,85.7
	L57.7,85.7l0,14.8L57.7,85.7z"/>
<linearGradient id="SVGID_2_" gradientUnits="userSpaceOnUse" x1="9.374" y1="20.9905" x2="162.9793" y2="114.3353">
	<stop  offset="0" style="stop-color:#633C97"/>
	<stop  offset="0.4698" style="stop-color:#326DB5"/>
	<stop  offset="1" style="stop-color:#00A997"/>
</linearGradient>
<path class="st1" d="M26.7,50.9h48.4l-5-12.4H32.9L26.7,50.9z"/>
</svg>
