<?xml version="1.0" encoding="utf-8"?>
<!-- Generator: Adobe Illustrator 24.1.1, SVG Export Plug-In . SVG Version: 6.00 Build 0)  -->
<svg version="1.1" id="Layer_1" xmlns="http://www.w3.org/2000/svg" xmlns:xlink="http://www.w3.org/1999/xlink" x="0px" y="0px"
	 viewBox="0 0 200 200" style="enable-background:new 0 0 200 200;" xml:space="preserve">
<style type="text/css">
	.st0{fill:url(#SVGID_1_);}
	.st1{fill:url(#SVGID_2_);}
	.st2{fill:url(#SVGID_3_);}
</style>
<g>
	<g>
		<linearGradient id="SVGID_1_" gradientUnits="userSpaceOnUse" x1="78.7972" y1="45.0426" x2="158.7972" y2="144.0426">
			<stop  offset="0" style="stop-color:#633B96"/>
			<stop  offset="0.4698" style="stop-color:#316CB4"/>
			<stop  offset="1" style="stop-color:#00A895"/>
		</linearGradient>
		<path class="st0" d="M151.8,70.6V66c0-5.4-4.4-9.9-9.7-9.9h-92c-5.4,0-9.7,4.4-9.7,9.9v4.6H151.8z"/>
		<linearGradient id="SVGID_2_" gradientUnits="userSpaceOnUse" x1="61.5265" y1="58.9988" x2="141.5265" y2="157.9988">
			<stop  offset="0" style="stop-color:#633B96"/>
			<stop  offset="0.4698" style="stop-color:#316CB4"/>
			<stop  offset="1" style="stop-color:#00A895"/>
		</linearGradient>
		<path class="st1" d="M40.5,81.2V119c0,5.4,4.4,9.8,9.7,9.8h51.7c-0.9-4-1.4-8-1.4-12.2v-8.5c0-2.9,2.2-5.2,5-5.5
			c9.8-0.8,16.9-4.7,21.7-11.8c1.1-1.6,2.8-2.4,4.6-2.4s3.5,0.9,4.6,2.4c3.8,5.6,8.8,9.1,15.4,10.8V81.2H40.5z M88,120.5H59.7
			c-1,0-1.8-0.8-1.8-1.8s0.8-1.8,1.8-1.8H88c1,0,1.8,0.8,1.8,1.8S89,120.5,88,120.5z M88,112.3H59.7c-1,0-1.8-0.8-1.8-1.8
			s0.8-1.8,1.8-1.8H88c1,0,1.8,0.8,1.8,1.8S89,112.3,88,112.3z M95.2,101c0,0.9-0.7,1.6-1.6,1.6H56.3c-0.9,0-1.6-0.7-1.6-1.6v-7.9
			c0-0.9,0.7-1.6,1.6-1.6h37.3c0.9,0,1.6,0.7,1.6,1.6V101z"/>
	</g>
	<g>
		<linearGradient id="SVGID_3_" gradientUnits="userSpaceOnUse" x1="73.7377" y1="49.1312" x2="153.7377" y2="148.1312">
			<stop  offset="0" style="stop-color:#633B96"/>
			<stop  offset="0.4698" style="stop-color:#316CB4"/>
			<stop  offset="1" style="stop-color:#00A895"/>
		</linearGradient>
		<path class="st2" d="M157.9,106.3c-11-0.9-19-5.3-24.5-13.4c-0.4-0.5-0.9-0.8-1.5-0.8s-1.2,0.3-1.5,0.8
			c-5.5,8.1-13.5,12.5-24.5,13.4c-1,0.1-1.7,0.9-1.7,1.8v8.5c0,18.7,10.2,35.7,26.5,44.3c0,0,0.2,0.1,0.2,0.1l0.2,0.1
			c0.2,0.1,0.5,0.1,0.7,0.1c0.3,0,0.7-0.1,1-0.2l0.2-0.1c16.4-8.6,26.5-25.6,26.5-44.3v-8.5C159.5,107.2,158.8,106.4,157.9,106.3z
			 M135.4,137.6h-7.1c-1.3,0-2.1-1.2-1.8-2.4l1.6-5c0.2-0.7,0-1.5-0.6-2c-1.6-1.3-2.6-3.2-2.6-5.4c0-3.8,3.1-6.9,6.9-6.9
			c3.8,0,6.9,3.1,6.9,6.9c0,2.2-1,4.2-2.6,5.4c-0.6,0.5-0.9,1.3-0.6,2l1.6,5C137.5,136.4,136.6,137.6,135.4,137.6z"/>
	</g>
</g>
</svg>
